# xmcd CD database file
#
# Track frame offsets:
#	150
#	21499
#	43824
#	61443
#	82583
#	101261
#	118935
#	140698
#	161978
#	185829
#	213032
#	244929
#
# Disc length: 3540 seconds
#
# Revision: 0
# Processed by: cddbd v1.4PL0 Copyright (c) Steve Scherf et al.
# Submitted via: CDex 1.50beta10
#
DISCID=ac0dd20c
DTITLE=Various Artist - Night Jazz Fantasy Vol.2
DYEAR=1900
DGENRE=Jazz
TTITLE0=Gonna love you - Thom Rotella
TTITLE1=Momento De Luz - chuck Loeb
TTITLE2=Toomuch is just right - Dial and Oatts
TTITLE3=Groovin - Chuck Loeb and Andy Laverne
TTITLE4=Chain of Fools - Thursday Diva
TTITLE5=The Gift - Warren Bernhardt
TTITLE6=Scarborough Fair/Norwegian Wood - Joe Beck and Ali Ryerson
TTITLE7=Bridges - Janice Borla
TTITLE8=The Immigrants - Thom Rotella Band
TTITLE9=Junkyard - Charls and Friedman
TTITLE10=Soul Revival - Vivino Brothers
TTITLE11=Mission Impossible - Joe Morello
EXTD=
EXTT0=
EXTT1=
EXTT2=
EXTT3=
EXTT4=
EXTT5=
EXTT6=
EXTT7=
EXTT8=
EXTT9=
EXTT10=
EXTT11=
PLAYORDER=
